<svg id="Layer_1" data-name="Layer 1" xmlns="http://www.w3.org/2000/svg" viewBox="0 0 34.13 34.13"><path d="M34.13,10.28V23.85A10.28,10.28,0,0,1,23.85,34.13H10.28A10.28,10.28,0,0,1,0,23.85V10.28A10.28,10.28,0,0,1,10.28,0H23.85A10.28,10.28,0,0,1,34.13,10.28Z" fill="#245a9b"/><path d="M20.49,10V13.2H24.9a.39.39,0,0,1,.39.42L24.9,18.2a.39.39,0,0,1-.39.35h-4V34.13H14.16V18.55H11.39a.38.38,0,0,1-.39-.38V13.59a.38.38,0,0,1,.39-.39h2.77V8.79a5.57,5.57,0,0,1,5.57-5.57H25a.4.4,0,0,1,.39.39V8.19a.4.4,0,0,1-.39.39h-3.1A1.37,1.37,0,0,0,20.49,10Z" fill="#efefef" fill-rule="evenodd"/></svg>