<svg id="Layer_1" data-name="Layer 1" xmlns="http://www.w3.org/2000/svg" xmlns:xlink="http://www.w3.org/1999/xlink" viewBox="0 0 34.13 34.13"><defs><linearGradient id="Degradado_sin_nombre_2" x1="1.02" y1="30.72" x2="50.28" y2="-11.22" gradientUnits="userSpaceOnUse"><stop offset="0" stop-color="#ffe185"/><stop offset="0.21" stop-color="#ffbb36"/><stop offset="0.38" stop-color="#ff5176"/><stop offset="0.52" stop-color="#f63395"/><stop offset="0.74" stop-color="#a436d2"/><stop offset="1" stop-color="#5f4eed"/></linearGradient></defs><rect width="34.13" height="34.13" rx="10.28" fill="url(#Degradado_sin_nombre_2)"/><path d="M24.5,8a1.76,1.76,0,1,0,1.76,1.76A1.75,1.75,0,0,0,24.5,8ZM17.12,9.87a7.39,7.39,0,1,0,7.38,7.39A7.39,7.39,0,0,0,17.12,9.87Zm0,12.12a4.74,4.74,0,1,1,4.73-4.73A4.74,4.74,0,0,1,17.12,22Z" fill="#efefef"/><path d="M12.28,31.35a9.51,9.51,0,0,1-9.5-9.5V12.28a9.51,9.51,0,0,1,9.5-9.5h9.57a9.51,9.51,0,0,1,9.5,9.5v9.57a9.51,9.51,0,0,1-9.5,9.5Zm0-25.82a6.76,6.76,0,0,0-6.75,6.75v9.57a6.75,6.75,0,0,0,6.75,6.74h9.57a6.74,6.74,0,0,0,6.74-6.74V12.28a6.75,6.75,0,0,0-6.74-6.75Z" fill="#efefef"/></svg>