<?xml version="1.0" encoding="utf-8"?>
<!-- Generator: Adobe Illustrator 24.1.2, SVG Export Plug-In . SVG Version: 6.00 Build 0)  -->
<svg version="1.1" id="Layer_1" xmlns="http://www.w3.org/2000/svg" xmlns:xlink="http://www.w3.org/1999/xlink" x="0px" y="0px"
	 viewBox="0 0 34.1 34.1" enableBackground="new 0 0 34.1 34.1" xml:space="preserve">
<path fill="#FFFFFF" d="M34.1,10.3v13.6c0,5.7-4.6,10.3-10.3,10.3h0H10.3C4.6,34.1,0,29.5,0,23.8c0,0,0,0,0,0V10.3
	C0,4.6,4.6,0,10.3,0h13.6C29.5,0,34.1,4.6,34.1,10.3L34.1,10.3z"/>
<g>
	<path fill-rule="evenodd" clip-rule="evenodd" fill="#00F7EF" d="M9.5,25.9c-4.8-4.1-1.7-13.4,5.7-12.2v0.9
		C8.9,14.3,6.2,21.7,9.5,25.9z M22.8,9.9c0.8,0.6,1.8,1,3.2,1.1v0.8C24.5,11.6,23.5,10.8,22.8,9.9z M20.8,5.5c0,0.3,0,0.6,0.1,0.9
		H18V21c0,0.7-0.1,1.3-0.2,1.8c-1.2,2.6-4.6,2.3-5.5,0.5c1.4,0.9,3.7,0.6,4.6-1.4c0.1-0.5,0.2-1.1,0.2-1.8V5.5H20.8z"/>
	<path fill-rule="evenodd" clip-rule="evenodd" d="M21.7,6.5L21.7,6.5c0,0.4,0.1,5.2,5.2,5.5c0,4.5,0,0,0,3.8
		c-0.4,0-3.4-0.2-5.2-1.8l0,7.3c0,3.3-1.8,6.6-5.3,7.2c-1,0.2-1.8,0.2-3.3-0.1c-8.4-2.5-5.6-15,2.8-13.7c0,4,0,0,0,4
		c-3.5-0.5-4.7,2.4-3.7,4.5c0.8,1.9,4.3,2.3,5.5-0.4c0.1-0.5,0.2-1.1,0.2-1.8V6.5H21.7z"/>
	<path fill-rule="evenodd" clip-rule="evenodd" fill="#FF004F" d="M15.1,14.6c0.3,0,0.6,0,0.9,0.1c0,4,0,0,0,4
		c-3.5-0.5-4.7,2.4-3.7,4.5c0,0,0,0.1,0.1,0.1c-0.4-0.3-0.8-0.6-0.9-1.1c-0.9-2.1,0.2-5,3.7-4.5C15.1,14.1,15.1,17.1,15.1,14.6z
		 M26.1,11.9c0.3,0.1,0.6,0.1,0.9,0.1c0,4.5,0,0,0,3.8c-0.4,0-3.4-0.2-5.2-1.8l0,7.3c0,3.3-1.8,6.6-5.3,7.2c-1,0.2-1.8,0.2-3.3-0.1
		c-1.6-0.5-2.9-1.4-3.7-2.4c0.7,0.6,1.7,1.2,2.8,1.5c1.5,0.3,2.3,0.3,3.3,0.1c3.5-0.7,5.3-3.9,5.3-7.2l0-7.3
		c1.9,1.7,4.8,1.9,5.2,1.8C26.1,11.3,26.1,15,26.1,11.9z M21.7,6.5L21.7,6.5c0,0.2,0,2,1.1,3.5c-1.3-1-1.7-2.5-1.9-3.5H21.7z"/>
</g>
</svg>
