<?xml version="1.0" encoding="utf-8"?>
<!-- Generator: Adobe Illustrator 18.0.0, SVG Export Plug-In . SVG Version: 6.00 Build 0)  -->
<!DOCTYPE svg PUBLIC "-//W3C//DTD SVG 1.1//EN" "http://www.w3.org/Graphics/SVG/1.1/DTD/svg11.dtd">
<svg version="1.1" id="Layer_1" xmlns="http://www.w3.org/2000/svg" xmlns:xlink="http://www.w3.org/1999/xlink" x="0px" y="0px"
	 viewBox="0 0 18.1 18.1" enableBackground="new 0 0 18.1 18.1" xml:space="preserve">
<path fill="#7D529D" d="M0,9c0-5,4-9,9-9c5,0,9,4,9,9c0,5-4,9-9,9C4,18.1,0,14,0,9"/>
<path fill="#F2F2F2" d="M13,11.1c-0.3-0.2-0.6-0.4-0.9-0.7c-0.6-0.4-1.2-0.5-1.6,0.2c-0.3,0.4-0.6,0.4-1,0.2c-1-0.5-1.8-1.2-2.3-2.2
	C7,8.2,7,7.8,7.4,7.5C7.7,7.3,8,7.1,7.9,6.7c0-0.5-1.2-2.2-1.7-2.3C6,4.3,5.8,4.3,5.6,4.4C4.5,4.7,4.1,5.7,4.5,6.7
	c1.3,3.2,3.6,5.5,6.8,6.9c0.2,0.1,0.4,0.1,0.5,0.1c0.7,0,1.6-0.7,1.8-1.4C13.9,11.7,13.4,11.4,13,11.1"/>
<path fill="#F2F2F2" d="M9.4,4.6c2.3,0.4,3.4,1.5,3.7,3.8c0,0.2-0.1,0.5,0.3,0.6c0.3,0,0.2-0.3,0.2-0.5c0-2.2-1.9-4.3-4.1-4.3
	C9.3,4.1,9,4,8.9,4.3C8.9,4.6,9.2,4.5,9.4,4.6"/>
<path fill="#F2F2F2" d="M9.9,5.2c-0.2,0-0.5-0.1-0.6,0.2C9.2,5.7,9.6,5.7,9.8,5.7C11.2,6.1,11.7,6.6,12,8c0,0.2,0,0.5,0.3,0.5
	c0.3,0,0.2-0.3,0.2-0.5C12.5,6.6,11.3,5.4,9.9,5.2"/>
<path fill="#F2F2F2" d="M10,6.3c-0.2,0-0.3,0-0.4,0.2C9.6,6.8,9.7,6.8,9.9,6.8c0.6,0.1,0.9,0.4,1,1c0,0.2,0.1,0.3,0.3,0.3
	c0.2,0,0.2-0.2,0.2-0.4C11.4,7.1,10.6,6.3,10,6.3"/>
<circle fill="none" stroke="#FFFFFF" stroke-width="0.519" stroke-miterlimit="10" cx="9" cy="9" r="8.1"/>
</svg>
