<?xml version="1.0" encoding="utf-8"?>
<!-- Generator: Adobe Illustrator 18.0.0, SVG Export Plug-In . SVG Version: 6.00 Build 0)  -->
<!DOCTYPE svg PUBLIC "-//W3C//DTD SVG 1.1//EN" "http://www.w3.org/Graphics/SVG/1.1/DTD/svg11.dtd">
<svg version="1.1" id="Layer_1" xmlns="http://www.w3.org/2000/svg" xmlns:xlink="http://www.w3.org/1999/xlink" x="0px" y="0px"
	 viewBox="0 0 18.1 18.1" enableBackground="new 0 0 18.1 18.1" xml:space="preserve">
<path fill="#43B649" d="M0,9c0-5,4-9,9-9c5,0,9,4,9,9c0,5-4,9-9,9C4,18.1,0,14,0,9"/>
<path fill-rule="evenodd" clip-rule="evenodd" fill="#F2F2F2" d="M11.8,9.9c-0.1-0.1-0.7-0.4-0.8-0.4c-0.1,0-0.2-0.1-0.3,0.1
	c-0.1,0.1-0.3,0.4-0.4,0.5c-0.1,0.1-0.2,0.1-0.3,0C9.8,9.9,9.4,9.7,9,9.3C8.6,9,8.4,8.5,8.3,8.4c-0.1-0.1,0-0.2,0.1-0.3
	C8.4,8.1,8.5,8,8.5,7.9c0.1-0.1,0.1-0.1,0.1-0.2c0-0.1,0-0.2,0-0.2c0-0.1-0.3-0.7-0.4-0.9C8.2,6.3,8.1,6.3,8.1,6.3
	c-0.1,0-0.2,0-0.2,0c-0.1,0-0.2,0-0.3,0.1C7.3,6.6,7,6.9,7,7.5s0.4,1.2,0.5,1.3c0.1,0.1,0.8,1.4,2.1,2c1.3,0.6,1.3,0.4,1.5,0.4
	s0.8-0.3,0.9-0.6C12,10.3,12,10.1,12,10C12,10,11.9,9.9,11.8,9.9 M9.5,12.8c-0.8,0-1.6-0.3-2.3-0.7l-1.6,0.5l0.5-1.5
	c-0.5-0.7-0.8-1.5-0.8-2.4c0-2.3,1.8-4.1,4.1-4.1c2.3,0,4.1,1.8,4.1,4.1S11.7,12.8,9.5,12.8 M9.5,3.8C6.7,3.8,4.5,6,4.5,8.7
	c0,0.9,0.3,1.8,0.7,2.5l-0.9,2.6L7.1,13c0.7,0.4,1.5,0.6,2.4,0.6c2.7,0,4.9-2.2,4.9-4.9C14.4,6,12.2,3.8,9.5,3.8"/>
<circle fill="none" stroke="#FFFFFF" stroke-width="0.519" stroke-miterlimit="10" cx="9" cy="9" r="8.1"/>
</svg>
