<?xml version="1.0" encoding="utf-8"?>
<!-- Generator: Adobe Illustrator 24.1.2, SVG Export Plug-In . SVG Version: 6.00 Build 0)  -->
<svg version="1.1" id="Layer_1" xmlns="http://www.w3.org/2000/svg" xmlns:xlink="http://www.w3.org/1999/xlink" x="0px" y="0px"
	 viewBox="0 0 34.1 34.1" style="enableBackground:new 0 0 34.1 34.1;" xml:space="preserve">
<style type="text/css">
	.st0{fill:#FFFFFF;}
	.st1{fill:#F61C0D;}
</style>
<path class="st0" d="M34.1,10.3v13.6c0,5.7-4.6,10.3-10.3,10.3h0H10.3C4.6,34.1,0,29.5,0,23.9c0,0,0,0,0,0V10.3C0,4.6,4.6,0,10.3,0
	h13.6C29.5,0,34.1,4.6,34.1,10.3L34.1,10.3z"/>
<g>
	<path class="st1" d="M25.4,7H8.8c-3.3,0-5.9,2.6-5.9,5.9v8.3c0,3.3,2.6,5.9,5.9,5.9h16.6c3.3,0,5.9-2.6,5.9-5.9v-8.3
		C31.2,9.7,28.6,7,25.4,7z M21.4,17.5l-7.8,3.7c-0.2,0.1-0.4-0.1-0.4-0.3v-7.6c0-0.2,0.2-0.4,0.5-0.3l7.8,3.9
		C21.6,17,21.6,17.4,21.4,17.5z"/>
</g>
</svg>
