<svg xmlns="http://www.w3.org/2000/svg" x="0px" y="0px" viewBox="0 0 19 19" enable-background="new 0 0 19 19" class="w-[18px]"><g><g opacity="0"><rect x="0" y="0" fill="none" width="19" height="19"></rect></g><g><path fill="#f25ca8" d="M10.7,3.9H2.6l0.9,1h7.2c0.3,0,0.5-0.2,0.5-0.5v0C11.2,4.1,11,3.9,10.7,3.9z"></path><path fill="#2A3B53" d="M7.8,18.7c-0.2,0-0.4-0.1-0.6-0.2C7.1,18.4,7,18.1,7,17.9V11c0-0.4-0.1-0.7-0.3-1l-6-8.5 C0.4,1.3,0.4,1,0.6,0.7C0.7,0.4,1,0.3,1.3,0.3h16.4c0.3,0,0.6,0.2,0.7,0.4c0.1,0.3,0.1,0.6-0.1,0.9l-6,8.5c-0.2,0.3-0.3,0.6-0.3,1 v5.6c0,0.4-0.2,0.7-0.5,0.8l-3.4,1.3C8,18.7,7.9,18.7,7.8,18.7z M7.5,9.4C7.8,9.9,8,10.4,8,11v6.6l3-1.1V11c0-0.6,0.2-1.1,0.5-1.6 l5.8-8.2H1.7L7.5,9.4z"></path></g></g></svg>