<svg xmlns="http://www.w3.org/2000/svg" x="0px" y="0px" viewBox="0 0 19 19" enable-background="new 0 0 19 19" class="w-[18px]"><g><g opacity="0"><g opacity="0"><rect x="0" y="0" fill="none" width="19" height="19"></rect></g></g><path fill="#2A3B53" d="M1.4,18.3c-0.3,0-0.5-0.2-0.5-0.5c0-0.3,0.2-0.5,0.5-0.5h4c0.3,0,0.5,0.2,0.5,0.5c0,0.3-0.2,0.5-0.5,0.5 H1.4z"></path><path fill="#2A3B53" d="M1.4,15c-0.3,0-0.5-0.2-0.5-0.5S1.1,14,1.4,14h5.4c0.3,0,0.5,0.2,0.5,0.5S7.1,15,6.8,15H1.4z"></path><path fill="#2A3B53" d="M1.4,11.7c-0.3,0-0.5-0.2-0.5-0.5s0.2-0.5,0.5-0.5h6.7c0.3,0,0.5,0.2,0.5,0.5s-0.2,0.5-0.5,0.5H1.4z"></path><path fill="#2A3B53" d="M1.4,8.4c-0.3,0-0.5-0.2-0.5-0.5c0-0.3,0.2-0.5,0.5-0.5h8c0.3,0,0.5,0.2,0.5,0.5c0,0.3-0.2,0.5-0.5,0.5H1.4 z"></path><path fill="#2A3B53" d="M1.4,5C1.1,5,0.9,4.8,0.9,4.5C0.9,4.2,1.1,4,1.4,4h9.4c0.3,0,0.5,0.2,0.5,0.5C11.2,4.8,11,5,10.7,5H1.4z"></path><path fill="#2A3B53" d="M1.4,1.7c-0.3,0-0.5-0.2-0.5-0.5s0.2-0.5,0.5-0.5h11.6c0.3,0,0.5,0.2,0.5,0.5s-0.2,0.5-0.5,0.5H1.4z"></path><path fill="#f25ca8" d="M14,18.3c-0.2,0-0.4-0.2-0.4-0.4V4.5c0-0.1,0-0.2,0.1-0.3C13.7,4.1,13.8,4,14,4c0.2,0,0.4,0.2,0.4,0.4v13.4 c0,0.1,0,0.2-0.1,0.3C14.2,18.3,14.1,18.3,14,18.3z"></path><path fill="#f25ca8" d="M14,18.3c-0.1,0-0.2,0-0.3-0.1l-3.7-3.7c-0.2-0.2-0.2-0.5,0-0.6c0.1-0.1,0.2-0.1,0.3-0.1 c0.1,0,0.2,0,0.3,0.1l3.7,3.7c0.2,0.2,0.2,0.5,0,0.6C14.2,18.3,14.1,18.3,14,18.3z"></path><path fill="#f25ca8" d="M14,18.3c-0.1,0-0.2,0-0.3-0.1c-0.1-0.1-0.1-0.2-0.1-0.3c0-0.1,0-0.2,0.1-0.3l3.7-3.7 c0.1-0.1,0.2-0.1,0.3-0.1c0.1,0,0.2,0,0.3,0.1c0.2,0.2,0.2,0.5,0,0.6l-3.7,3.7C14.2,18.3,14.1,18.3,14,18.3z"></path></g></svg>